<svg width="32" height="32" viewBox="0 0 32 32" fill="none" xmlns="http://www.w3.org/2000/svg">
<path d="M0.361937 21.9997C0.883454 27.1087 4.89134 31.1165 10.0003 31.6381C12.0475 31.8471 14.1707 32 16 32C17.8293 32 19.9525 31.8471 21.9997 31.6381C27.1087 31.1165 31.1165 27.1087 31.6381 21.9997C31.8471 19.9525 32 17.8293 32 16C32 14.1707 31.8471 12.0475 31.6381 10.0003C31.1165 4.89134 27.1087 0.883454 21.9997 0.361937C19.9525 0.152951 17.8293 0 16 0C14.1707 0 12.0475 0.152951 10.0003 0.361937C4.89134 0.883454 0.883454 4.89134 0.361937 10.0003C0.152951 12.0475 0 14.1707 0 16C0 17.8293 0.152951 19.9525 0.361937 21.9997Z" fill="#FFB800"/>
<path d="M23.4172 12.4237C23.0692 11.5292 22.5778 10.708 21.9652 9.99026C20.6973 8.50381 18.9271 7.4654 16.9167 7.12756C16.4551 7.04981 15.9837 7 15.5 7C15.0163 7 14.5448 7.04981 14.0833 7.12756C12.0729 7.4654 10.3032 8.50353 9.03479 9.98969C8.42272 10.7077 7.93131 11.5287 7.58329 12.4232C7.21135 13.3784 7 14.4134 7 15.5C7 16.4986 7.18093 17.4526 7.49746 18.3427C7.81951 19.2481 8.28491 20.0843 8.87539 20.8189C10.1521 22.4071 11.9871 23.5202 14.0833 23.8724C14.5448 23.9502 15.0163 24 15.5 24C15.9837 24 16.4551 23.9502 16.9167 23.8724C19.0129 23.5202 20.8479 22.4071 22.1246 20.8191C22.715 20.0846 23.1805 19.2484 23.5025 18.343C23.819 17.4529 24 16.4986 24 15.5C24 14.4137 23.7886 13.3786 23.4172 12.4237ZM22.4201 12.999L20.9337 13.857C20.652 12.9273 20.1379 12.0989 19.4589 11.437L20.9591 10.571C21.5927 11.2721 22.0919 12.0937 22.4201 12.999ZM20.045 15.5C20.045 18.006 18.0062 20.045 15.5 20.045C12.9937 20.045 10.955 18.006 10.955 15.5C10.955 12.994 12.9937 10.955 15.5 10.955C18.0062 10.955 20.045 12.994 20.045 15.5ZM15.5 8.13334C15.9847 8.13334 16.4579 8.18344 16.9167 8.27307V10.0079C16.4629 9.8906 15.9897 9.82171 15.5 9.82171C15.0102 9.82171 14.5371 9.89063 14.0833 10.0079V8.27307C14.542 8.18344 15.0152 8.13334 15.5 8.13334ZM10.0414 10.5707L11.5416 11.437C10.8626 12.0986 10.348 12.927 10.0663 13.8567L8.57988 12.9987C8.90859 12.0934 9.40776 11.2719 10.0414 10.5707ZM8.49413 17.7672L10.0026 16.8965C10.2428 17.8414 10.7182 18.6912 11.3662 19.3809L9.87202 20.2434C9.2639 19.5226 8.79184 18.6845 8.49413 17.7672ZM15.5 22.8667C15.0152 22.8667 14.542 22.8166 14.0833 22.7269V20.9921C14.5371 21.1094 15.0102 21.1783 15.5 21.1783C15.9897 21.1783 16.4629 21.1094 16.9167 20.9921V22.7269C16.4579 22.8166 15.9847 22.8667 15.5 22.8667ZM21.1273 20.2434L19.6338 19.3809C20.2817 18.6914 20.7571 17.8414 20.9973 16.8965L22.5058 17.7675C22.2081 18.6845 21.7361 19.5226 21.1273 20.2434Z" fill="#0F1015"/>
<path d="M15.9802 14.8824C15.2575 14.6105 14.9603 14.432 14.9603 14.1514C14.9603 13.9135 15.1386 13.6755 15.6914 13.6755C16.0101 13.6755 16.2691 13.7284 16.475 13.7925C16.5917 13.8288 16.7185 13.8153 16.8258 13.7555C16.9327 13.696 17.0101 13.595 17.0405 13.4763L17.0483 13.447C17.1174 13.1761 16.9547 12.8999 16.6836 12.8299C16.4755 12.776 16.2281 12.7367 15.9294 12.7234V12.4043C15.9294 12.1874 15.7686 11.9976 15.5527 11.9774C15.305 11.9542 15.0965 12.1488 15.0965 12.392V12.7829C14.1868 12.9613 13.6599 13.5479 13.6599 14.2958C13.6599 15.1204 14.2802 15.5454 15.19 15.8514C15.8187 16.0638 16.0909 16.2678 16.0909 16.5907C16.0909 16.9307 15.7595 17.1178 15.2747 17.1178C14.9277 17.1178 14.6006 17.0472 14.3168 16.9466C14.1984 16.9042 14.0672 16.9144 13.9559 16.9736C13.8447 17.0328 13.7633 17.1357 13.7324 17.2581L13.7285 17.2725C13.6544 17.5622 13.8215 17.8585 14.1076 17.9449C14.3881 18.0292 14.718 18.0887 15.0538 18.1037V18.4833C15.0538 18.7133 15.2403 18.8998 15.4703 18.8998C15.7003 18.8998 15.8867 18.7133 15.8867 18.4833V18.0442C16.864 17.8743 17.3997 17.2282 17.3997 16.4718C17.3997 15.707 16.9919 15.2394 15.9802 14.8824Z" fill="#0F1015"/>

</svg>
