<svg width="31" height="32" viewBox="0 0 31 32" fill="none" xmlns="http://www.w3.org/2000/svg">
<path d="M30.6822 0.502114C30.2963 0.157114 29.6951 0.190427 29.3261 0.552864L29.0339 0.839802L28.3789 0.196489C28.1355 -0.0425106 27.7393 -0.0708856 27.4808 0.152239C27.1975 0.396677 27.187 0.820927 27.4494 1.07861L28.1201 1.7373L27.0262 2.81161L26.6376 2.42993C26.2591 2.05811 25.6454 2.05811 25.2669 2.42993L18.3519 9.22143C18.0777 9.49074 18.0033 9.88093 18.1263 10.217L17.4371 10.8938C17.3311 10.8555 17.2184 10.8344 17.1032 10.8344C16.8462 10.8344 16.5996 10.9347 16.4178 11.1132L15.3328 12.1788L14.3105 11.1747C13.7502 10.6244 12.8646 10.5801 12.2504 11.0717L8.29582 14.236C7.95893 14.5056 7.75306 14.9047 7.73098 15.3309C7.7089 15.7571 7.87245 16.1747 8.17968 16.4764L9.56841 17.8404L8.48342 18.906C8.30167 19.0845 8.19954 19.3267 8.19954 19.5791C8.19954 19.6944 8.22181 19.807 8.26215 19.9129L7.59143 20.5637C7.24919 20.4429 6.85191 20.516 6.57777 20.7854L0.2839 26.9669C-0.101289 27.3452 -0.0935256 27.9609 0.301146 28.3297L3.94826 31.7377C4.37513 32.1365 5.06253 32.0722 5.40502 31.6014L10.5875 24.4766C10.8514 24.0985 10.8035 23.5894 10.4734 23.2652L9.94539 22.7467L10.4838 22.2169L11.336 23.0539L12.9579 27.7994C13.0932 28.1954 13.4696 28.4485 13.8763 28.4485C13.9606 28.4485 14.0462 28.4377 14.1313 28.415L18.2926 27.3029C18.6078 27.2186 18.871 26.9935 18.9768 26.69C19.1271 26.2584 18.9488 25.7964 18.5673 25.5667L18.1655 25.3248L16.9149 20.8106L18.0465 19.8674C19.7588 21.06 21.8184 21.7124 23.9363 21.7124C24.2965 21.7124 24.6585 21.6935 25.0207 21.6553C25.3781 21.6175 25.6831 21.384 25.8136 21.055L26.918 18.2704C27.0408 17.9607 26.9903 17.6106 26.7847 17.3466C26.5792 17.0826 26.2485 16.9429 25.9118 16.9784C24.2708 17.1504 22.6365 16.83 21.2111 16.0955C21.2178 16.0321 21.2231 15.9686 21.2257 15.9046C21.2617 15.0403 20.9251 14.1938 20.3024 13.5822L19.7895 13.0784L20.3488 12.529L21.3083 13.4714C21.4906 13.6505 21.7374 13.7502 21.9936 13.7502C22.0137 13.7502 22.0339 13.7496 22.0541 13.7484C22.3317 13.7314 22.5884 13.5981 22.759 13.3824L28.8066 5.73893C29.1064 5.35993 29.0721 4.82105 28.7266 4.48168L28.3969 4.15786L30.7161 1.88005C31.1056 1.49755 31.0943 0.870427 30.6822 0.502114ZM13.6503 19.3284L13.1538 19.8159C13.0276 19.9398 12.8623 20.0018 12.6969 20.0018C12.5315 20.0018 12.3661 19.9399 12.24 19.8159C11.9877 19.5681 11.9877 19.1662 12.24 18.9184L12.7365 18.4309C12.9889 18.1831 13.3981 18.1831 13.6504 18.4309C13.9027 18.6787 13.9027 19.0805 13.6503 19.3284ZM10.9391 16.4941L9.86337 15.4376L13.195 12.7717L13.9621 13.5251L10.9391 16.4941Z" fill="#ADFF00"/>
</svg>
