<svg width="33" height="31" viewBox="0 0 33 31" fill="none" xmlns="http://www.w3.org/2000/svg">
<path d="M2.58725 0.829957C3.89849 0.294783 5.61469 0 7.41986 0C9.22502 0 10.9412 0.294783 12.2525 0.829957C14.2581 1.6486 14.7433 2.78478 14.8253 3.5213H14.8397V13.6941C15.2513 13.662 15.6717 13.645 16.0973 13.645C16.523 13.645 16.9433 13.662 17.3549 13.6941V8.55172H17.3693C17.4514 7.81521 17.9366 6.67902 19.9422 5.86038C21.2535 5.32521 22.9697 5.03043 24.7748 5.03043C26.58 5.03043 28.2962 5.32521 29.6074 5.86038C31.8585 6.77919 32.1947 8.09855 32.1947 8.80325V23.643C32.1947 24.3477 31.8586 25.6671 29.6074 26.5859C28.2962 27.1211 26.58 27.4158 24.7748 27.4158C24.3476 27.4158 23.9263 27.3988 23.5129 27.3666C23.4676 28.0956 23.0401 29.3088 20.93 30.17C19.6187 30.7053 17.9025 31 16.0973 31C14.2922 31 12.576 30.7052 11.2647 30.17C9.01362 29.2512 8.67746 27.9319 8.67746 27.2272V27.1783C8.26541 27.2103 7.84562 27.2272 7.41986 27.2272C5.61469 27.2272 3.89849 26.9324 2.58725 26.3972C0.336073 25.4784 -2.28882e-05 24.1591 -2.28882e-05 23.4544V3.77282C-2.28882e-05 3.06812 0.336136 1.74876 2.58725 0.829957ZM7.41986 2.51521C4.51265 2.51521 2.83563 3.36699 2.54053 3.77282C2.83563 4.17865 4.51265 5.03043 7.41986 5.03043C10.3271 5.03043 12.0041 4.17865 12.2992 3.77282C12.0041 3.36699 10.3271 2.51521 7.41986 2.51521ZM16.0975 16.1602C13.1916 16.1602 11.5146 17.0113 11.2185 17.4173C11.2208 17.4206 11.2229 17.4237 11.2254 17.427C11.2302 17.4332 11.2353 17.4395 11.2407 17.4458C11.2468 17.4531 11.2532 17.4605 11.2601 17.468C11.2662 17.4746 11.2725 17.4812 11.2792 17.488C11.2869 17.4957 11.295 17.5036 11.3034 17.5115C11.3107 17.5184 11.3182 17.5254 11.3262 17.5324C11.3353 17.5406 11.3452 17.5489 11.3552 17.5573C11.3638 17.5644 11.3724 17.5716 11.3816 17.5789C11.3924 17.5875 11.404 17.5962 11.4156 17.605C11.4254 17.6123 11.4351 17.6197 11.4455 17.6272C11.458 17.6362 11.4712 17.6454 11.4846 17.6545C11.4955 17.662 11.5063 17.6695 11.5178 17.6771C11.532 17.6865 11.5472 17.6961 11.5623 17.7056C11.5742 17.7131 11.5859 17.7206 11.5984 17.7283C11.6145 17.7381 11.6316 17.748 11.6487 17.758C11.6616 17.7655 11.6741 17.773 11.6875 17.7805C11.7057 17.7908 11.725 17.8012 11.7442 17.8115C11.7578 17.8189 11.7709 17.8262 11.7849 17.8336C11.806 17.8446 11.8283 17.8557 11.8505 17.8669C11.8639 17.8737 11.8767 17.8803 11.8905 17.8871C11.9182 17.9006 11.9474 17.9142 11.9767 17.9279C11.986 17.9322 11.9946 17.9365 12.0041 17.9408C12.0435 17.9588 12.0843 17.9768 12.1266 17.9948C12.1346 17.9982 12.1434 18.0016 12.1515 18.005C12.1859 18.0195 12.2207 18.0339 12.2569 18.0483C12.2725 18.0544 12.2891 18.0606 12.305 18.0668C12.3348 18.0783 12.3644 18.0898 12.3953 18.1012C12.4143 18.1083 12.4342 18.1152 12.4537 18.1222C12.4829 18.1327 12.5119 18.1432 12.5421 18.1535C12.5631 18.1607 12.585 18.1678 12.6065 18.175C12.6363 18.1849 12.666 18.1949 12.6968 18.2047C12.7197 18.212 12.7434 18.2191 12.7667 18.2264C12.7973 18.2358 12.8279 18.2453 12.8594 18.2546C12.8841 18.2619 12.9094 18.269 12.9346 18.2762C12.9662 18.2852 12.9978 18.2941 13.0303 18.303C13.0565 18.3101 13.0834 18.317 13.1101 18.3241C13.1428 18.3326 13.1756 18.3412 13.2091 18.3495C13.2368 18.3565 13.265 18.3632 13.2932 18.37C13.3271 18.3781 13.3614 18.3862 13.3961 18.3941C13.4252 18.4007 13.4546 18.4072 13.4842 18.4137C13.5194 18.4214 13.555 18.4289 13.5909 18.4363C13.6214 18.4426 13.6521 18.4488 13.6831 18.4549C13.7196 18.462 13.7566 18.4691 13.7939 18.476C13.8255 18.4818 13.8574 18.4876 13.8895 18.4933C13.9276 18.5 13.9661 18.5064 14.0049 18.5128C14.0377 18.5183 14.0706 18.5236 14.104 18.5288C14.1435 18.535 14.1836 18.5408 14.2238 18.5466C14.2577 18.5515 14.2916 18.5564 14.3261 18.5611C14.3673 18.5667 14.4092 18.5719 14.4512 18.5771C14.486 18.5814 14.5207 18.5858 14.5561 18.5899C14.599 18.5948 14.6427 18.5994 14.6864 18.604C14.7221 18.6077 14.7576 18.6115 14.7939 18.615C14.8388 18.6192 14.8846 18.6231 14.9303 18.627C14.9666 18.6301 15.0025 18.6333 15.0392 18.6361C15.0869 18.6397 15.1356 18.6428 15.1841 18.646C15.2202 18.6483 15.2558 18.6509 15.2922 18.6529C15.3438 18.6559 15.3965 18.6582 15.449 18.6606C15.4838 18.6621 15.5179 18.664 15.553 18.6653C15.6117 18.6675 15.6717 18.669 15.7316 18.6705C15.7617 18.6712 15.7912 18.6724 15.8215 18.6729C15.9122 18.6746 16.0042 18.6756 16.0975 18.6756C16.1908 18.6756 16.2826 18.6746 16.3734 18.6729C16.4038 18.6724 16.4332 18.6712 16.4633 18.6705C16.5232 18.669 16.5832 18.6675 16.6419 18.6653C16.677 18.664 16.7112 18.6621 16.7459 18.6606C16.7984 18.6582 16.8511 18.6559 16.9027 18.6529C16.9392 18.6509 16.9748 18.6483 17.0108 18.646C17.0593 18.6428 17.108 18.6397 17.1557 18.6361C17.1925 18.6333 17.2284 18.6301 17.2646 18.627C17.3103 18.6231 17.3561 18.6192 17.401 18.615C17.4373 18.6115 17.4728 18.6077 17.5086 18.604C17.5523 18.5994 17.596 18.5948 17.6389 18.5899C17.6742 18.5858 17.7089 18.5814 17.7437 18.5771C17.7857 18.5719 17.8277 18.5666 17.8689 18.5611C17.9033 18.5564 17.9372 18.5515 17.9711 18.5466C18.0114 18.5408 18.0515 18.5349 18.0909 18.5288C18.1243 18.5237 18.1572 18.5183 18.1901 18.5128C18.2289 18.5064 18.2674 18.5 18.3054 18.4933C18.3376 18.4876 18.3694 18.4818 18.401 18.476C18.4384 18.4691 18.4753 18.462 18.5119 18.4549C18.5429 18.4488 18.5736 18.4426 18.604 18.4363C18.64 18.4289 18.6755 18.4214 18.7107 18.4137C18.7403 18.4073 18.7698 18.4007 18.7988 18.3941C18.8336 18.3862 18.8678 18.3782 18.9017 18.37C18.93 18.3633 18.9581 18.3565 18.9858 18.3495C19.0193 18.3412 19.0521 18.3326 19.0848 18.3241C19.1116 18.3171 19.1384 18.3101 19.1646 18.303C19.1971 18.2941 19.2287 18.2852 19.2603 18.2762C19.2855 18.269 19.3108 18.2619 19.3355 18.2546C19.367 18.2453 19.3976 18.2359 19.4282 18.2264C19.4516 18.2191 19.4753 18.212 19.4982 18.2047C19.5289 18.1949 19.5587 18.1849 19.5885 18.175C19.61 18.1678 19.6318 18.1607 19.6528 18.1535C19.683 18.1431 19.712 18.1326 19.7413 18.1222C19.7607 18.1152 19.7807 18.1083 19.7997 18.1012C19.8305 18.0899 19.8602 18.0783 19.8899 18.0668C19.9058 18.0606 19.9224 18.0545 19.938 18.0483C19.9742 18.034 20.0091 18.0195 20.0435 18.005C20.0516 18.0016 20.0603 17.9982 20.0684 17.9948C20.1105 17.9769 20.1514 17.9588 20.1908 17.9408C20.2002 17.9365 20.2089 17.9322 20.2182 17.9279C20.2476 17.9143 20.2767 17.9006 20.3044 17.8871C20.3182 17.8803 20.3309 17.8737 20.3443 17.8669C20.3665 17.8558 20.3889 17.8447 20.41 17.8336C20.424 17.8262 20.4372 17.8189 20.4507 17.8115C20.4698 17.8012 20.4892 17.7908 20.5073 17.7805C20.5207 17.773 20.5332 17.7655 20.5461 17.758C20.5631 17.748 20.5803 17.7381 20.5964 17.7283C20.6089 17.7207 20.6206 17.7131 20.6325 17.7056C20.6476 17.696 20.6628 17.6865 20.677 17.6771C20.6885 17.6695 20.6993 17.662 20.7102 17.6545C20.7236 17.6454 20.7368 17.6362 20.7493 17.6272C20.7597 17.6198 20.7694 17.6124 20.7792 17.605C20.7909 17.5962 20.8024 17.5875 20.8132 17.5789C20.8224 17.5716 20.831 17.5644 20.8396 17.5573C20.8496 17.5489 20.8594 17.5406 20.8686 17.5324C20.8766 17.5254 20.884 17.5185 20.8914 17.5115C20.8999 17.5036 20.908 17.4957 20.9157 17.488C20.9223 17.4812 20.9287 17.4746 20.9347 17.468C20.9416 17.4605 20.9481 17.4531 20.9542 17.4458C20.9596 17.4395 20.9647 17.4332 20.9694 17.427C20.9719 17.4237 20.974 17.4206 20.9764 17.4173C20.6802 17.0113 19.0035 16.1602 16.0975 16.1602ZM24.7748 7.54564C21.8676 7.54564 20.1906 8.39742 19.8955 8.80325C20.1906 9.20907 21.8676 10.0609 24.7748 10.0609C27.682 10.0609 29.3591 9.20907 29.6541 8.80325C29.3591 8.39742 27.682 7.54564 24.7748 7.54564ZM23.5172 24.8428C23.9259 24.8808 24.346 24.9006 24.7748 24.9006C27.7809 24.9006 29.4717 23.9898 29.6795 23.6032V21.7135C29.6553 21.7237 29.6321 21.734 29.6074 21.7441C28.2962 22.2793 26.58 22.574 24.7748 22.574C24.3491 22.574 23.9293 22.5571 23.5172 22.5251V24.8428ZM23.5172 17.6065V20.001C23.9259 20.039 24.346 20.0588 24.7748 20.0588C27.7865 20.0588 29.4768 19.1451 29.6795 18.7597V16.6831C29.6553 16.6933 29.6321 16.7036 29.6074 16.7137C28.2962 17.2489 26.58 17.5436 24.7748 17.5436C24.3487 17.5436 23.9278 17.5266 23.5158 17.4945C23.5145 17.5305 23.5122 17.5679 23.509 17.6065H23.5172ZM24.7748 15.0284C27.7865 15.0284 29.4768 14.1147 29.6795 13.7292V11.7155C29.6553 11.7257 29.6321 11.736 29.6074 11.7462C28.2962 12.2813 26.58 12.5761 24.7748 12.5761C22.9697 12.5761 21.2535 12.2813 19.9422 11.7461C19.9176 11.736 19.8944 11.7257 19.8702 11.7155V13.7292C20.0728 14.1147 21.7632 15.0284 24.7748 15.0284ZM11.1927 27.1873C11.4004 27.574 13.0912 28.4848 16.0973 28.4848C19.1035 28.4848 20.7942 27.574 21.002 27.1873V25.1719C20.9778 25.1821 20.9547 25.1924 20.9299 25.2025C19.6187 25.7377 17.9025 26.0325 16.0973 26.0325C14.2922 26.0325 12.576 25.7377 11.2647 25.2025C11.2401 25.1924 11.2169 25.1821 11.1927 25.1719V27.1873ZM11.1927 22.2181C11.3953 22.6035 13.0857 23.5172 16.0973 23.5172C19.109 23.5172 20.7993 22.6035 21.002 22.2181V20.3302C20.9778 20.3403 20.9547 20.3507 20.9299 20.3608C19.6187 20.8959 17.9025 21.1907 16.0973 21.1907C14.2922 21.1907 12.576 20.8959 11.2647 20.3607C11.2401 20.3507 11.2169 20.3403 11.1927 20.3301V22.2181ZM2.51519 23.4145C2.72295 23.8012 4.41374 24.712 7.41986 24.712C7.8487 24.712 8.2688 24.6921 8.67746 24.6541V22.3372C8.26503 22.3692 7.84493 22.3854 7.41986 22.3854C5.61469 22.3854 3.89849 22.0906 2.58725 21.5554C2.5626 21.5454 2.5394 21.535 2.51519 21.5248V23.4145ZM2.51519 18.571C2.71785 18.9565 4.4082 19.8702 7.41986 19.8702C7.84782 19.8702 8.26824 19.8506 8.67746 19.8125V17.6065H8.6857C8.68249 17.5679 8.68017 17.5305 8.67891 17.4945C8.26685 17.5266 7.84599 17.5436 7.41986 17.5436C5.61469 17.5436 3.89849 17.2488 2.58725 16.7137C2.5626 16.7036 2.5394 16.6932 2.51519 16.683V18.571ZM2.51519 13.7292C2.71785 14.1147 4.4082 15.0284 7.41986 15.0284C10.4315 15.0284 12.1219 14.1147 12.3245 13.7292V11.6526C12.3003 11.6628 12.2772 11.6731 12.2525 11.6832C10.9412 12.2185 9.22502 12.5132 7.41986 12.5132C5.61469 12.5132 3.89849 12.2184 2.58725 11.6832C2.5626 11.6732 2.5394 11.6628 2.51519 11.6526V13.7292ZM2.51519 8.6988C2.71785 9.08426 4.4082 9.99797 7.41986 9.99797C10.4315 9.99797 12.1219 9.08426 12.3245 8.6988V6.68506C12.3003 6.69525 12.2772 6.70556 12.2525 6.71568C10.9412 7.25092 9.22502 7.54564 7.41986 7.54564C5.61469 7.54564 3.89849 7.25086 2.58725 6.71568C2.5626 6.70562 2.5394 6.69525 2.51519 6.68506V8.6988Z" fill="#FFD000"/>
</svg>
