<svg width="17" height="15" viewBox="0 0 17 15" fill="none" xmlns="http://www.w3.org/2000/svg">
<path d="M7.17928 1.09805L4.14023 3.37387H1.36484C0.906904 3.37387 0.532227 3.74855 0.532227 4.20649V10.0071C0.532227 10.4651 0.906904 10.8397 1.36484 10.8397H4.14023L7.17928 13.1155C7.73436 13.5318 8.51147 13.1432 8.51147 12.4494V1.76415C8.51147 1.0703 7.72049 0.681745 7.17928 1.09805Z" fill="#ADFF00"/>
<path d="M11.2592 2.45795C10.8845 2.08327 10.26 2.08327 9.8855 2.45795C9.51082 2.83263 9.51082 3.45709 9.8855 3.83177C11.6895 5.63577 11.6895 8.56394 9.8855 10.3679C9.51082 10.7426 9.51082 11.3671 9.8855 11.7416C10.0796 11.9359 10.3294 12.0192 10.5653 12.0192C10.8012 12.0192 11.065 11.9222 11.2453 11.7277C13.8264 9.18827 13.8264 5.02518 11.2592 2.45795Z" fill="#ADFF00"/>
<path d="M12.3415 0.279297C11.9669 0.653975 11.9669 1.27844 12.3415 1.65312C13.7985 3.11019 14.6035 5.03909 14.6035 7.10676C14.6035 9.17442 13.7985 11.1033 12.3415 12.5604C11.9669 12.9351 11.9669 13.5595 12.3415 13.9342C12.5357 14.1284 12.7855 14.2256 13.0214 14.2256C13.2712 14.2256 13.521 14.1285 13.7014 13.9481C15.5193 12.1302 16.5322 9.70175 16.5322 7.12063C16.5322 4.53952 15.533 2.12493 13.7014 0.293174C13.3406 -0.0953804 12.73 -0.0953803 12.3415 0.279297Z" fill="#ADFF00"/>
</svg>
