<svg width="32" height="32" viewBox="0 0 32 32" fill="none" xmlns="http://www.w3.org/2000/svg">
<path d="M0.361937 21.9997C0.883454 27.1087 4.89134 31.1165 10.0003 31.6381C12.0475 31.8471 14.1707 32 16 32C17.8293 32 19.9525 31.8471 21.9997 31.6381C27.1087 31.1165 31.1165 27.1087 31.6381 21.9997C31.8471 19.9525 32 17.8293 32 16C32 14.1707 31.8471 12.0475 31.6381 10.0003C31.1165 4.89134 27.1087 0.883454 21.9997 0.361937C19.9525 0.152951 17.8293 0 16 0C14.1707 0 12.0475 0.152951 10.0003 0.361937C4.89134 0.883454 0.883454 4.89134 0.361937 10.0003C0.152951 12.0475 0 14.1707 0 16C0 17.8293 0.152951 19.9525 0.361937 21.9997Z" fill="#FFB800"/>
<path d="M15.5245 7.46353C15.6741 7.00287 16.3259 7.00287 16.4755 7.46353L18.1329 12.5643C18.1998 12.7703 18.3918 12.9098 18.6084 12.9098H23.9717C24.4561 12.9098 24.6575 13.5296 24.2656 13.8143L19.9266 16.9668C19.7514 17.0941 19.678 17.3198 19.745 17.5258L21.4023 22.6266C21.552 23.0873 21.0248 23.4704 20.6329 23.1857L16.2939 20.0332C16.1186 19.9059 15.8814 19.9059 15.7061 20.0332L11.3671 23.1857C10.9752 23.4704 10.448 23.0873 10.5977 22.6266L12.255 17.5258C12.322 17.3198 12.2486 17.0941 12.0734 16.9668L7.73438 13.8143C7.34253 13.5296 7.54392 12.9098 8.02828 12.9098H13.3916C13.6082 12.9098 13.8002 12.7703 13.8671 12.5643L15.5245 7.46353Z" fill="#0F1015"/>

</svg>
