<svg width="14" height="13" viewBox="0 0 14 13" fill="none" xmlns="http://www.w3.org/2000/svg">
<path d="M13.0866 4.14757C12.8204 3.4635 12.4446 2.83551 11.9762 2.28667C11.0067 1.14997 9.65294 0.355898 8.11556 0.0975453C7.76261 0.038093 7.40208 0 7.03223 0C6.66234 0 6.30179 0.038093 5.94889 0.0975453C4.41148 0.355898 3.05817 1.14976 2.08824 2.28623C1.62019 2.83532 1.2444 3.46309 0.978268 4.14713C0.69385 4.87756 0.532227 5.66908 0.532227 6.5C0.532227 7.26363 0.670586 7.99319 0.91264 8.67386C1.15891 9.3662 1.51481 10.0056 1.96635 10.5674C2.94264 11.7819 4.34585 12.6331 5.94889 12.9025C6.30179 12.9619 6.66234 13 7.03223 13C7.40208 13 7.76261 12.9619 8.11556 12.9025C9.71854 12.6331 11.1218 11.7819 12.0981 10.5676C12.5496 10.0058 12.9055 9.36642 13.1518 8.67408C13.3938 7.99341 13.5322 7.26363 13.5322 6.5C13.5322 5.6693 13.3705 4.87778 13.0866 4.14757ZM12.3241 4.58749L11.1874 5.24358C10.972 4.53266 10.5788 3.89917 10.0596 3.39303L11.2068 2.73075C11.6914 3.26694 12.0731 3.89515 12.3241 4.58749ZM10.5078 6.5C10.5078 8.41638 8.94877 9.97555 7.03223 9.97555C5.11563 9.97555 3.55665 8.41638 3.55665 6.5C3.55665 4.58368 5.11566 3.02445 7.03223 3.02445C8.94877 3.02445 10.5078 4.58368 10.5078 6.5ZM7.03223 0.86667C7.4029 0.86667 7.76473 0.904981 8.11556 0.973521V2.30016C7.76854 2.21046 7.40671 2.15778 7.03223 2.15778C6.65769 2.15778 6.29586 2.21048 5.94889 2.30016V0.973521C6.29967 0.904981 6.6615 0.86667 7.03223 0.86667ZM2.85797 2.73056L4.00522 3.39303C3.48601 3.89896 3.09246 4.53244 2.87704 5.24337L1.74037 4.58727C1.99173 3.89493 2.37345 3.26672 2.85797 2.73056ZM1.6748 8.23378L2.82836 7.56791C3.01203 8.29048 3.37554 8.94029 3.87105 9.46777L2.72848 10.1273C2.26344 9.57609 1.90246 8.9352 1.6748 8.23378ZM7.03223 12.1333C6.6615 12.1333 6.29967 12.095 5.94889 12.0265V10.6998C6.29586 10.7896 6.65769 10.8422 7.03223 10.8422C7.40671 10.8422 7.76854 10.7896 8.11556 10.6998V12.0265C7.76473 12.095 7.4029 12.1333 7.03223 12.1333ZM11.3355 10.1273L10.1933 9.46777C10.6889 8.94048 11.0524 8.29048 11.236 7.56791L12.3896 8.23399C12.1619 8.9352 11.801 9.57609 11.3355 10.1273Z" fill="#ADFF00"/>
<path d="M7.39962 6.02775C6.84694 5.81976 6.61969 5.68328 6.61969 5.4687C6.61969 5.28675 6.75598 5.10481 7.1787 5.10481C7.42245 5.10481 7.62053 5.14524 7.77796 5.1943C7.86724 5.22202 7.96413 5.21168 8.04625 5.16595C8.12793 5.12045 8.18716 5.04323 8.21043 4.95243L8.21636 4.93004C8.26923 4.7229 8.14482 4.5117 7.93746 4.45818C7.77834 4.41693 7.58918 4.38689 7.36071 4.37671V4.13267C7.36071 3.9668 7.23778 3.8217 7.07264 3.80624C6.88327 3.78853 6.72379 3.93731 6.72379 4.12326V4.42221C6.02813 4.55866 5.62524 5.00723 5.62524 5.57915C5.62524 6.20969 6.09961 6.53468 6.79533 6.76868C7.27609 6.93118 7.48424 7.08714 7.48424 7.33404C7.48424 7.59408 7.23078 7.73714 6.86006 7.73714C6.59474 7.73714 6.3446 7.68319 6.12755 7.60618C6.037 7.5738 5.93668 7.58161 5.8516 7.62689C5.76657 7.67217 5.70434 7.75086 5.68064 7.84443L5.6777 7.85545C5.621 8.07696 5.74877 8.30356 5.96756 8.3696C6.18211 8.43411 6.43437 8.4796 6.6912 8.49106V8.78135C6.6912 8.95723 6.83377 9.09981 7.00965 9.09981C7.18553 9.09981 7.32811 8.95723 7.32811 8.78135V8.44556C8.07544 8.31564 8.48508 7.82157 8.48508 7.2431C8.48508 6.65829 8.1732 6.30071 7.39962 6.02775Z" fill="#ADFF00"/>
</svg>
