<svg width="48" height="48" viewBox="0 0 48 48" fill="none" xmlns="http://www.w3.org/2000/svg">
<path d="M0.542906 32.9996C1.32518 40.663 7.33701 46.6748 15.0004 47.4571C18.0713 47.7706 21.2561 48 24 48C26.7439 48 29.9287 47.7706 32.9996 47.4571C40.663 46.6748 46.6748 40.663 47.4571 32.9996C47.7706 29.9287 48 26.7439 48 24C48 21.2561 47.7706 18.0713 47.4571 15.0004C46.6748 7.33701 40.663 1.32518 32.9996 0.542906C29.9287 0.229426 26.7439 0 24 0C21.2561 0 18.0713 0.229426 15.0004 0.542906C7.33701 1.32518 1.32518 7.33701 0.542906 15.0004C0.229426 18.0713 0 21.2561 0 24C0 26.7439 0.229426 29.9287 0.542906 32.9996Z" fill="#FFB800"/>
<path d="M14.4286 22C13.6411 22 13 23.122 13 24.5V32.5C13 33.878 13.6411 35 14.4286 35H16.1429C16.4646 35 16.7606 34.81 17 34.494V22H14.4286Z" fill="#0F1015"/>
<path d="M34.9999 25.8958C34.9999 25.2448 34.7421 24.6381 34.2947 24.1906C34.8006 23.6371 35.0584 22.8949 34.988 22.1226C34.8613 20.7456 33.6208 19.6666 32.1627 19.6666H25.4709C25.8024 18.6602 26.3333 16.8153 26.3333 15.3333C26.3333 12.9836 24.3367 11 23.0833 11C21.9577 11 21.1538 11.6338 21.1192 11.6598C20.9914 11.7627 20.9166 11.9187 20.9166 12.0833V15.7569L17.7966 22.5158L17.6666 22.5819V34.1931C18.5484 34.6091 19.6643 34.8333 20.3749 34.8333H30.3189C31.4986 34.8333 32.5311 34.0381 32.7737 32.9408C32.8983 32.3763 32.8257 31.8076 32.5776 31.3136C33.3782 30.9106 33.9166 30.0861 33.9166 29.1458C33.9166 28.7623 33.8289 28.3951 33.6621 28.0625C34.4626 27.6595 34.9999 26.8351 34.9999 25.8958Z" fill="#0F1015"/>

</svg>
