<svg width="14" height="14" viewBox="0 0 14 14" fill="none" xmlns="http://www.w3.org/2000/svg">
<path d="M4.30299 10.074L3.01599 9.577C3.18799 10.268 3.81199 10.78 4.55699 10.78C5.43399 10.78 6.14599 10.069 6.14599 9.191C6.14599 8.315 5.43399 7.603 4.55699 7.603C4.24099 7.603 3.94699 7.696 3.69999 7.855L4.97099 8.345C5.44799 8.53 5.68599 9.066 5.50199 9.543C5.31699 10.021 4.78099 10.26 4.30299 10.074Z" fill="#1F1F1F"/>
<path d="M9.20606 6.36299C10.2921 6.36299 11.1751 5.47999 11.1751 4.39399C11.1751 3.30799 10.2921 2.42499 9.20606 2.42499C8.12106 2.42499 7.23706 3.30799 7.23706 4.39399C7.23706 5.47899 8.12106 6.36299 9.20606 6.36299ZM9.20606 3.00699C9.97206 3.00699 10.5941 3.62899 10.5941 4.39399C10.5941 5.15899 9.97206 5.78099 9.20606 5.78099C8.44106 5.78099 7.81906 5.15899 7.81906 4.39399C7.81906 3.62899 8.44106 3.00699 9.20606 3.00699Z" fill="#1F1F1F"/>
<path d="M11.367 0H1.715C0.767 0 0 0.768 0 1.715V6.424L2.495 7.388C2.978 6.829 3.686 6.471 4.48 6.458L5.979 4.458C5.979 2.685 7.417 1.248 9.189 1.248C10.962 1.248 12.399 2.685 12.399 4.458C12.399 5.431 11.965 6.303 11.281 6.892C10.718 7.375 9.988 7.668 9.189 7.668C9.105 7.668 9.022 7.664 8.94 7.657L7.198 8.97C7.202 9.025 7.204 9.081 7.204 9.137C7.204 10.617 6.004 11.819 4.524 11.819C3.044 11.819 1.844 10.618 1.844 9.137C1.844 9.133 1.844 9.127 1.844 9.122L0 8.41V11.365C0 12.312 0.768 13.08 1.715 13.08H11.367C12.314 13.08 13.082 12.312 13.082 11.365V1.716C13.082 0.769 12.314 0 11.367 0Z" fill="#1F1F1F"/>
</svg>
