<svg width="32" height="32" viewBox="0 0 32 32" fill="none" xmlns="http://www.w3.org/2000/svg">
<path d="M16 4.32571C17.1558 4.32571 18.2954 4.42781 19.4125 4.62806V2.15861H21.6874V0H10.3126V2.15861H12.5875V4.62806C13.7047 4.42781 14.8442 4.32571 16 4.32571Z" fill="#ADFF00"/>
<path d="M16 1.63583C7.16344 1.63583 0 8.43308 0 16.8179C0 25.2028 7.16344 32 16 32C24.8366 32 32 25.2028 32 16.8179C32 8.43308 24.8366 1.63583 16 1.63583ZM16 26.6033C10.3137 26.6033 5.68741 22.2136 5.68741 16.8179C5.68741 11.4223 10.3137 7.0325 16 7.0325C21.6863 7.0325 26.3126 11.4223 26.3126 16.8179C26.3126 22.2136 21.6863 26.6033 16 26.6033Z" fill="#ADFF00"/>
<path d="M17.1375 15.7386H23.9569C23.4555 12.3952 20.661 9.74358 17.1375 9.26782V15.7386Z" fill="#ADFF00"/>
<path d="M14.8625 17.8972V9.26782C10.9673 9.79373 7.96228 12.9788 7.96228 16.8179C7.96228 21.0233 11.568 24.4447 16 24.4447C20.0459 24.4447 23.4026 21.5933 23.9568 17.8972H14.8625Z" fill="#ADFF00"/>
</svg>
