<svg width="14" height="13" viewBox="0 0 14 13" fill="none" xmlns="http://www.w3.org/2000/svg">
<path d="M9.95741 9.95312H4.1068L3.53551 12.2383H2.69031V13H11.3739V12.2383H10.5287L9.95741 9.95312ZM8.59363 11.8574H5.47058V11.0957H8.59363V11.8574Z" fill="#ADFF00"/>
<path d="M12.0087 1.52344H2.05554C1.21552 1.52344 0.532104 2.20685 0.532104 3.04688C0.532104 3.8869 1.21552 4.57031 2.05554 4.57031H3.039C3.49153 5.73074 4.58958 6.57064 5.88953 6.64653V9.19141H8.17468V6.64653C9.47463 6.57064 10.5727 5.73074 11.0252 4.57031H12.0087C12.8487 4.57031 13.5321 3.8869 13.5321 3.04688C13.5321 2.20685 12.8487 1.52344 12.0087 1.52344ZM2.05554 3.80859C1.63553 3.80859 1.29382 3.46689 1.29382 3.04688C1.29382 2.62686 1.63553 2.28516 2.05554 2.28516H2.81726V3.38782C2.81726 3.53039 2.8265 3.67082 2.84433 3.80859H2.05554ZM12.0087 3.80859H11.2199C11.2377 3.6708 11.2469 3.53036 11.2469 3.38782V2.28516H12.0087C12.4287 2.28516 12.7704 2.62686 12.7704 3.04688C12.7704 3.46689 12.4287 3.80859 12.0087 3.80859Z" fill="#ADFF00"/>
<path d="M2.05554 0H12.0087V0.761719H2.05554V0Z" fill="#ADFF00"/>
</svg>
