<svg width="14" height="13" viewBox="0 0 14 13" fill="none" xmlns="http://www.w3.org/2000/svg">
<path d="M12.3714 11.323V0L12.0172 0.0362217C10.5966 0.17945 9.20315 0.593649 7.88783 1.26389L7.26428 1.57965V12.8579L7.71837 12.6277C9.07949 11.937 10.5206 11.5097 11.9898 11.3609L12.3714 11.323Z" fill="#ADFF00"/>
<path d="M13.5321 1.67395H12.8357V11.5838C12.8361 11.7314 12.7433 11.8547 12.6226 11.8669L12.0281 11.9264C11.8565 11.9436 11.6853 11.9651 11.5148 11.9906C11.4595 11.9988 11.4045 12.0096 11.3495 12.019C11.2346 12.0376 11.1199 12.0566 11.0055 12.0787C10.9389 12.0917 10.8727 12.1069 10.8063 12.1211C10.7039 12.143 10.6013 12.1647 10.4992 12.1893C10.4295 12.2063 10.3599 12.2254 10.2888 12.2438C10.1916 12.2689 10.0943 12.2947 9.99772 12.3227C9.92529 12.3437 9.85309 12.366 9.78111 12.3884C9.68714 12.4167 9.59363 12.4473 9.50023 12.4791C9.42757 12.5034 9.35491 12.5291 9.28248 12.5551C9.18965 12.5886 9.09817 12.6226 9.00647 12.6583C8.93472 12.6866 8.86285 12.7149 8.79133 12.7431C8.69952 12.7809 8.60815 12.8199 8.51713 12.8601C8.44754 12.8909 8.37783 12.9219 8.30664 12.9544C8.27479 12.9692 8.24316 12.9849 8.21143 13H13.5321V1.67395Z" fill="#ADFF00"/>
<path d="M2.04709 0.0362217L1.69287 0V11.3238L2.1049 11.3666C3.57314 11.5163 5.01304 11.9463 6.37189 12.6407L6.80001 12.8579V1.57965L6.17715 1.26417C4.86171 0.593787 3.46806 0.17945 2.04709 0.0362217Z" fill="#ADFF00"/>
<path d="M0.532104 1.67395V12.9995H5.85654C5.82798 12.9858 5.79941 12.9711 5.77062 12.9581C5.7042 12.9273 5.63721 12.8978 5.57033 12.8681C5.47602 12.8264 5.38183 12.7857 5.28684 12.7469C5.21815 12.7185 5.14923 12.691 5.0802 12.6642C4.98601 12.6265 4.89147 12.5909 4.79682 12.5577C4.72711 12.5329 4.65751 12.5078 4.58792 12.4841C4.49248 12.4518 4.39681 12.4213 4.30091 12.3913C4.23131 12.3694 4.1616 12.3476 4.09042 12.3273C3.99316 12.2989 3.89534 12.2729 3.79763 12.2474C3.72804 12.229 3.65833 12.2103 3.58873 12.1933C3.48751 12.169 3.38583 12.1471 3.28415 12.1254C3.2175 12.1112 3.15085 12.0971 3.08409 12.0826C2.97187 12.0609 2.85931 12.0425 2.74676 12.024C2.68985 12.0147 2.63341 12.0036 2.57662 11.9958C2.40636 11.9706 2.23611 11.9492 2.06586 11.9315L1.44095 11.8669C1.32046 11.8543 1.22808 11.7311 1.22853 11.5838V1.67395H0.532104Z" fill="#ADFF00"/>
</svg>
