<svg width="31" height="31" viewBox="0 0 31 31" fill="none" xmlns="http://www.w3.org/2000/svg">
<path d="M29.6968 9.19861C27.9661 7.46794 25.1395 7.48125 23.4001 9.19861L17.104 15.4954L23.4001 21.7914C25.1378 23.529 27.9593 23.529 29.6968 21.7914C31.4344 20.0538 31.4344 17.2329 29.6968 15.4954C31.4344 13.7577 31.4344 10.9362 29.6968 9.19861Z" fill="#FFD000"/>
<path d="M7.59988 9.19845C5.86052 7.4811 3.0338 7.46779 1.30321 9.19845C-0.434405 10.9361 -0.434405 13.7575 1.30321 15.4952C-0.434405 17.2328 -0.434405 20.0537 1.30321 21.7913C3.04083 23.5289 5.86234 23.5289 7.59988 21.7913L13.896 15.4952L7.59988 9.19845Z" fill="#FFD000"/>
<path d="M15.5046 17.104L9.20849 23.4001C7.47087 25.1377 7.47087 27.9592 9.20849 29.6968C10.9461 31.4344 13.767 31.4344 15.5046 29.6968C17.2422 31.4344 20.0637 31.4344 21.8013 29.6968C23.532 27.9661 23.5187 25.1394 21.8013 23.4001L15.5046 17.104Z" fill="#FFD000"/>
<path d="M15.5049 13.8961L21.8016 7.59996C23.519 5.8606 23.5323 3.03388 21.8016 1.30321C20.064 -0.434405 17.2426 -0.434405 15.5049 1.30321C13.7673 -0.434405 10.9464 -0.434405 9.20873 1.30321C7.47111 3.04083 7.47111 5.86234 9.20873 7.59996L15.5049 13.8961Z" fill="#FFD000"/>
</svg>
