<svg width="48" height="48" viewBox="0 0 48 48" fill="none" xmlns="http://www.w3.org/2000/svg">
<path d="M0.542906 32.9996C1.32518 40.663 7.33701 46.6748 15.0004 47.4571C18.0713 47.7706 21.2561 48 24 48C26.7439 48 29.9287 47.7706 32.9996 47.4571C40.663 46.6748 46.6748 40.663 47.4571 32.9996C47.7706 29.9287 48 26.7439 48 24C48 21.2561 47.7706 18.0713 47.4571 15.0004C46.6748 7.33701 40.663 1.32518 32.9996 0.542906C29.9287 0.229426 26.7439 0 24 0C21.2561 0 18.0713 0.229426 15.0004 0.542906C7.33701 1.32518 1.32518 7.33701 0.542906 15.0004C0.229426 18.0713 0 21.2561 0 24C0 26.7439 0.229426 29.9287 0.542906 32.9996Z" fill="#FFB800"/>
<path d="M29.4507 15.9128C27.0874 13.0869 24.7546 11.2502 24.6566 11.1735C24.1241 10.757 23.3434 11.1376 23.3434 11.8133V15.3862C23.3434 17.2311 20.9019 17.8804 19.9869 16.2769C19.7024 15.7795 19.0106 15.7271 18.6524 16.1646C16.1936 19.1653 14 22.9487 14 26.8441C14 32.4441 18.5559 37 24.1559 37C29.7559 37 34.3118 32.4441 34.3118 26.8441C34.3118 22.8479 32.0044 18.9668 29.4507 15.9128ZM19.6873 24.0004C19.6873 23.1042 20.4165 22.3755 21.3123 22.3755C22.208 22.3755 22.9372 23.1042 22.9372 24.0004C22.9372 24.8967 22.208 25.6254 21.3123 25.6254C20.4165 25.6254 19.6873 24.8967 19.6873 24.0004ZM21.9536 30.9989C21.6796 31.352 21.169 31.4178 20.8136 31.1416C20.4592 30.8658 20.3957 30.3555 20.6709 30.0016L26.3582 22.6893C26.634 22.3349 27.1443 22.2714 27.4982 22.5466C27.8527 22.8224 27.9161 23.3327 27.6409 23.6866L21.9536 30.9989ZM26.9996 31.3127C26.1038 31.3127 25.3746 30.584 25.3746 29.6877C25.3746 28.7915 26.1038 28.0628 26.9996 28.0628C27.8953 28.0628 28.6245 28.7915 28.6245 29.6877C28.6245 30.584 27.8953 31.3127 26.9996 31.3127Z" fill="#0F1015"/>

</svg>
